<mxfile host="app.diagrams.net" modified="2023-07-01T16:50:59.076Z" agent="Mozilla/5.0 (X11; Linux x86_64) AppleWebKit/537.36 (KHTML, like Gecko) Chrome/114.0.0.0 Safari/537.36" etag="0lgv2s1YljG8gQX4RLAa" version="21.5.2" type="github">
  <diagram name="Page-1" id="4anDamNeQmVyaSpJP4ph">
    <mxGraphModel dx="1434" dy="804" grid="1" gridSize="10" guides="1" tooltips="1" connect="1" arrows="1" fold="1" page="1" pageScale="1" pageWidth="850" pageHeight="1100" math="0" shadow="0">
      <root>
        <mxCell id="0" />
        <mxCell id="1" parent="0" />
        <mxCell id="zMWpfirLC8FBCcrZkoME-4" style="edgeStyle=orthogonalEdgeStyle;rounded=0;orthogonalLoop=1;jettySize=auto;html=1;exitX=0.5;exitY=1;exitDx=0;exitDy=0;entryX=0.5;entryY=1;entryDx=0;entryDy=0;" edge="1" parent="1" source="zMWpfirLC8FBCcrZkoME-1" target="zMWpfirLC8FBCcrZkoME-2">
          <mxGeometry relative="1" as="geometry" />
        </mxCell>
        <mxCell id="zMWpfirLC8FBCcrZkoME-5" value="adjust" style="edgeLabel;html=1;align=center;verticalAlign=middle;resizable=0;points=[];" vertex="1" connectable="0" parent="zMWpfirLC8FBCcrZkoME-4">
          <mxGeometry x="0.05" y="-4" relative="1" as="geometry">
            <mxPoint as="offset" />
          </mxGeometry>
        </mxCell>
        <mxCell id="zMWpfirLC8FBCcrZkoME-1" value="Desired state" style="whiteSpace=wrap;html=1;aspect=fixed;" vertex="1" parent="1">
          <mxGeometry x="200" y="270" width="80" height="80" as="geometry" />
        </mxCell>
        <mxCell id="zMWpfirLC8FBCcrZkoME-3" value="observe" style="edgeStyle=orthogonalEdgeStyle;rounded=0;orthogonalLoop=1;jettySize=auto;html=1;exitX=0.5;exitY=0;exitDx=0;exitDy=0;entryX=0.5;entryY=0;entryDx=0;entryDy=0;" edge="1" parent="1" source="zMWpfirLC8FBCcrZkoME-2" target="zMWpfirLC8FBCcrZkoME-1">
          <mxGeometry relative="1" as="geometry" />
        </mxCell>
        <mxCell id="zMWpfirLC8FBCcrZkoME-2" value="Actual state" style="whiteSpace=wrap;html=1;aspect=fixed;" vertex="1" parent="1">
          <mxGeometry x="400" y="270" width="80" height="80" as="geometry" />
        </mxCell>
      </root>
    </mxGraphModel>
  </diagram>
</mxfile>
